# xmcd
#
# Track frame offsets: 
#        150
#        13700
#        26897
#        38314
#        51220
#        59449
#        71736
#        84926
#        95436
#        106589
#        123325
#        133326
#        148218
#        160178
#        171489
#        184134
#        195459
#        206959
#        219919
#        230733
#
# Disc length: 3228 seconds
#
# Revision: 0
# Processed by: cddbd v1.5.2PL0 Copyright (c) Steve Scherf et al.
# Submitted via: ExactAudioCopy v1.3
#
DISCID=230c9a14
DTITLE=Diverse Künstler - 40 Country Greats CD1
DYEAR=2009
DGENRE=Country
TTITLE0=Kenny Rogers - Ruby Don't Take Your Love to Town
TTITLE1=Charlie Rich - The Most Beautiful Girl In The World
TTITLE2=Patsy Cline - Walkin' After Midnight
TTITLE3=Jim Reeves - Four Walls
TTITLE4=Johnny Cash - Guess Things Happen That Way
TTITLE5=Faron Young - Sweet Dreams
TTITLE6=Dottie West - DIVORCE
TTITLE7=Everly Brothers - Bye Bye Love
TTITLE8=Slim Whitman - Singing Hills
TTITLE9=Lynn Anderson - Blue Bayou
TTITLE10=Jimmie Rodgers - Oh Oh I'm Falling In Love Again
TTITLE11=Jeannie C Riley - Harper Valley PTA
TTITLE12=Red Foley - Tennessee Saturday Night
TTITLE13=Marvin Rainwater - Gonna Find Me A Bluebird
TTITLE14=Billie Jo Spears - What I've Got In Mind
TTITLE15=Marty Robbins - A White Sports Coat (And A Pink Carnation)
TTITLE16=Ray Price - Crazy Arms
TTITLE17=Dolly Parton - Little Blossom
TTITLE18=Hank Locklin - Why Baby Why
TTITLE19=Sonny James - Sonny James
EXTD=
EXTT0=
EXTT1=
EXTT2=
EXTT3=
EXTT4=
EXTT5=
EXTT6=
EXTT7=
EXTT8=
EXTT9=
EXTT10=
EXTT11=
EXTT12=
EXTT13=
EXTT14=
EXTT15=
EXTT16=
EXTT17=
EXTT18=
EXTT19=
PLAYORDER=
